<mxfile host="app.diagrams.net" modified="2024-03-24T07:12:18.609Z" agent="Mozilla/5.0 (Windows NT 10.0; Win64; x64) AppleWebKit/537.36 (KHTML, like Gecko) Chrome/122.0.0.0 Safari/537.36 Edg/122.0.0.0" etag="vKOl60lAjLUpLYd6OZGZ" version="24.1.0" type="google">
  <diagram name="Page-1" id="yFCRJKTNk4W4V5waiRON">
    <mxGraphModel grid="1" page="1" gridSize="10" guides="1" tooltips="1" connect="1" arrows="1" fold="1" pageScale="1" pageWidth="827" pageHeight="1169" math="0" shadow="0">
      <root>
        <mxCell id="0" />
        <mxCell id="1" parent="0" />
        <mxCell id="b1v2_kHwI321clud9Hbd-4" value="" style="edgeStyle=orthogonalEdgeStyle;rounded=0;orthogonalLoop=1;jettySize=auto;html=1;" edge="1" parent="1" source="b1v2_kHwI321clud9Hbd-1" target="b1v2_kHwI321clud9Hbd-3">
          <mxGeometry relative="1" as="geometry" />
        </mxCell>
        <mxCell id="b1v2_kHwI321clud9Hbd-1" value="Start" style="ellipse;whiteSpace=wrap;html=1;" vertex="1" parent="1">
          <mxGeometry x="330" width="120" height="80" as="geometry" />
        </mxCell>
        <mxCell id="b1v2_kHwI321clud9Hbd-2" value="Prototype: float tientaxi(float distance)" style="text;html=1;align=center;verticalAlign=middle;whiteSpace=wrap;rounded=0;" vertex="1" parent="1">
          <mxGeometry width="320" height="60" as="geometry" />
        </mxCell>
        <mxCell id="b1v2_kHwI321clud9Hbd-6" value="" style="edgeStyle=orthogonalEdgeStyle;rounded=0;orthogonalLoop=1;jettySize=auto;html=1;" edge="1" parent="1" source="b1v2_kHwI321clud9Hbd-3" target="b1v2_kHwI321clud9Hbd-5">
          <mxGeometry relative="1" as="geometry" />
        </mxCell>
        <mxCell id="b1v2_kHwI321clud9Hbd-3" value="Input distance" style="shape=parallelogram;perimeter=parallelogramPerimeter;whiteSpace=wrap;html=1;fixedSize=1;" vertex="1" parent="1">
          <mxGeometry x="330" y="120" width="120" height="60" as="geometry" />
        </mxCell>
        <mxCell id="b1v2_kHwI321clud9Hbd-9" value="No" style="edgeStyle=orthogonalEdgeStyle;rounded=0;orthogonalLoop=1;jettySize=auto;html=1;" edge="1" parent="1" source="b1v2_kHwI321clud9Hbd-5" target="b1v2_kHwI321clud9Hbd-8">
          <mxGeometry relative="1" as="geometry" />
        </mxCell>
        <mxCell id="b1v2_kHwI321clud9Hbd-15" value="Yes" style="edgeStyle=orthogonalEdgeStyle;rounded=0;orthogonalLoop=1;jettySize=auto;html=1;" edge="1" parent="1" source="b1v2_kHwI321clud9Hbd-5" target="b1v2_kHwI321clud9Hbd-14">
          <mxGeometry relative="1" as="geometry" />
        </mxCell>
        <mxCell id="b1v2_kHwI321clud9Hbd-5" value="distance &lt;= 1" style="rhombus;whiteSpace=wrap;html=1;" vertex="1" parent="1">
          <mxGeometry x="270" y="220" width="240" height="80" as="geometry" />
        </mxCell>
        <mxCell id="b1v2_kHwI321clud9Hbd-11" value="No" style="edgeStyle=orthogonalEdgeStyle;rounded=0;orthogonalLoop=1;jettySize=auto;html=1;" edge="1" parent="1" source="b1v2_kHwI321clud9Hbd-8" target="b1v2_kHwI321clud9Hbd-10">
          <mxGeometry relative="1" as="geometry">
            <Array as="points">
              <mxPoint x="680" y="380" />
            </Array>
          </mxGeometry>
        </mxCell>
        <mxCell id="b1v2_kHwI321clud9Hbd-23" value="Yes" style="edgeStyle=orthogonalEdgeStyle;rounded=0;orthogonalLoop=1;jettySize=auto;html=1;" edge="1" parent="1" source="b1v2_kHwI321clud9Hbd-8" target="b1v2_kHwI321clud9Hbd-19">
          <mxGeometry relative="1" as="geometry" />
        </mxCell>
        <mxCell id="b1v2_kHwI321clud9Hbd-8" value="distance &gt; 1 &amp;&amp; distance &lt;= 10" style="rhombus;whiteSpace=wrap;html=1;" vertex="1" parent="1">
          <mxGeometry x="270" y="340" width="240" height="80" as="geometry" />
        </mxCell>
        <mxCell id="b1v2_kHwI321clud9Hbd-13" value="No" style="edgeStyle=orthogonalEdgeStyle;rounded=0;orthogonalLoop=1;jettySize=auto;html=1;" edge="1" parent="1" source="b1v2_kHwI321clud9Hbd-10" target="b1v2_kHwI321clud9Hbd-12">
          <mxGeometry relative="1" as="geometry" />
        </mxCell>
        <mxCell id="b1v2_kHwI321clud9Hbd-22" value="Yes" style="edgeStyle=orthogonalEdgeStyle;rounded=0;orthogonalLoop=1;jettySize=auto;html=1;" edge="1" parent="1" source="b1v2_kHwI321clud9Hbd-10" target="b1v2_kHwI321clud9Hbd-18">
          <mxGeometry relative="1" as="geometry" />
        </mxCell>
        <mxCell id="b1v2_kHwI321clud9Hbd-10" value="distance &gt; 10 &amp;&amp; distance &lt;= 30" style="rhombus;whiteSpace=wrap;html=1;" vertex="1" parent="1">
          <mxGeometry x="560" y="420" width="240" height="80" as="geometry" />
        </mxCell>
        <mxCell id="b1v2_kHwI321clud9Hbd-20" value="No" style="edgeStyle=orthogonalEdgeStyle;rounded=0;orthogonalLoop=1;jettySize=auto;html=1;" edge="1" parent="1" source="b1v2_kHwI321clud9Hbd-12" target="b1v2_kHwI321clud9Hbd-24">
          <mxGeometry relative="1" as="geometry">
            <mxPoint x="1060" y="810" as="targetPoint" />
          </mxGeometry>
        </mxCell>
        <mxCell id="b1v2_kHwI321clud9Hbd-21" value="Yes" style="edgeStyle=orthogonalEdgeStyle;rounded=0;orthogonalLoop=1;jettySize=auto;html=1;entryX=0.5;entryY=0;entryDx=0;entryDy=0;exitX=0.5;exitY=1;exitDx=0;exitDy=0;" edge="1" parent="1" source="b1v2_kHwI321clud9Hbd-12" target="b1v2_kHwI321clud9Hbd-16">
          <mxGeometry relative="1" as="geometry">
            <mxPoint x="450" y="590" as="sourcePoint" />
            <mxPoint x="320" y="800" as="targetPoint" />
            <Array as="points">
              <mxPoint x="680" y="770" />
              <mxPoint x="680" y="770" />
            </Array>
          </mxGeometry>
        </mxCell>
        <mxCell id="b1v2_kHwI321clud9Hbd-12" value="distance &gt; 30" style="rhombus;whiteSpace=wrap;html=1;" vertex="1" parent="1">
          <mxGeometry x="560" y="550" width="240" height="80" as="geometry" />
        </mxCell>
        <mxCell id="b1v2_kHwI321clud9Hbd-26" value="" style="edgeStyle=orthogonalEdgeStyle;rounded=0;orthogonalLoop=1;jettySize=auto;html=1;" edge="1" parent="1" source="b1v2_kHwI321clud9Hbd-14" target="b1v2_kHwI321clud9Hbd-25">
          <mxGeometry relative="1" as="geometry">
            <Array as="points">
              <mxPoint x="-260" y="1030" />
            </Array>
          </mxGeometry>
        </mxCell>
        <mxCell id="b1v2_kHwI321clud9Hbd-14" value="fare = distance * 15000" style="whiteSpace=wrap;html=1;" vertex="1" parent="1">
          <mxGeometry x="-350" y="790" width="180" height="60" as="geometry" />
        </mxCell>
        <mxCell id="b1v2_kHwI321clud9Hbd-29" value="" style="edgeStyle=orthogonalEdgeStyle;rounded=0;orthogonalLoop=1;jettySize=auto;html=1;" edge="1" parent="1" source="b1v2_kHwI321clud9Hbd-16" target="b1v2_kHwI321clud9Hbd-25">
          <mxGeometry relative="1" as="geometry">
            <Array as="points">
              <mxPoint x="680" y="1030" />
            </Array>
          </mxGeometry>
        </mxCell>
        <mxCell id="b1v2_kHwI321clud9Hbd-16" value="fare = distance * 4000" style="whiteSpace=wrap;html=1;" vertex="1" parent="1">
          <mxGeometry x="520" y="790" width="320" height="60" as="geometry" />
        </mxCell>
        <mxCell id="b1v2_kHwI321clud9Hbd-28" value="" style="edgeStyle=orthogonalEdgeStyle;rounded=0;orthogonalLoop=1;jettySize=auto;html=1;" edge="1" parent="1" source="b1v2_kHwI321clud9Hbd-18" target="b1v2_kHwI321clud9Hbd-25">
          <mxGeometry relative="1" as="geometry">
            <Array as="points">
              <mxPoint x="330" y="1030" />
            </Array>
          </mxGeometry>
        </mxCell>
        <mxCell id="b1v2_kHwI321clud9Hbd-18" value="fare = distance&amp;nbsp; * 6000" style="whiteSpace=wrap;html=1;" vertex="1" parent="1">
          <mxGeometry x="200" y="790" width="260" height="60" as="geometry" />
        </mxCell>
        <mxCell id="b1v2_kHwI321clud9Hbd-27" value="" style="edgeStyle=orthogonalEdgeStyle;rounded=0;orthogonalLoop=1;jettySize=auto;html=1;" edge="1" parent="1" source="b1v2_kHwI321clud9Hbd-19" target="b1v2_kHwI321clud9Hbd-25">
          <mxGeometry relative="1" as="geometry">
            <Array as="points">
              <mxPoint x="25" y="1030" />
            </Array>
          </mxGeometry>
        </mxCell>
        <mxCell id="b1v2_kHwI321clud9Hbd-19" value="fare = distance * 8000" style="whiteSpace=wrap;html=1;" vertex="1" parent="1">
          <mxGeometry x="-80" y="790" width="210" height="60" as="geometry" />
        </mxCell>
        <mxCell id="b1v2_kHwI321clud9Hbd-32" value="" style="edgeStyle=orthogonalEdgeStyle;rounded=0;orthogonalLoop=1;jettySize=auto;html=1;" edge="1" parent="1" source="b1v2_kHwI321clud9Hbd-24" target="b1v2_kHwI321clud9Hbd-30">
          <mxGeometry relative="1" as="geometry">
            <Array as="points">
              <mxPoint x="920" y="1120" />
            </Array>
          </mxGeometry>
        </mxCell>
        <mxCell id="b1v2_kHwI321clud9Hbd-24" value="Display&amp;nbsp;Quãng đường không hợp lệ" style="shape=parallelogram;perimeter=parallelogramPerimeter;whiteSpace=wrap;html=1;fixedSize=1;" vertex="1" parent="1">
          <mxGeometry x="810" y="980" width="220" height="60" as="geometry" />
        </mxCell>
        <mxCell id="b1v2_kHwI321clud9Hbd-31" value="" style="edgeStyle=orthogonalEdgeStyle;rounded=0;orthogonalLoop=1;jettySize=auto;html=1;" edge="1" parent="1" source="b1v2_kHwI321clud9Hbd-25" target="b1v2_kHwI321clud9Hbd-30">
          <mxGeometry relative="1" as="geometry">
            <Array as="points">
              <mxPoint x="160" y="1120" />
            </Array>
          </mxGeometry>
        </mxCell>
        <mxCell id="b1v2_kHwI321clud9Hbd-25" value="Display fare" style="shape=parallelogram;perimeter=parallelogramPerimeter;whiteSpace=wrap;html=1;fixedSize=1;" vertex="1" parent="1">
          <mxGeometry x="90" y="1000" width="150" height="60" as="geometry" />
        </mxCell>
        <mxCell id="b1v2_kHwI321clud9Hbd-30" value="End" style="ellipse;whiteSpace=wrap;html=1;" vertex="1" parent="1">
          <mxGeometry x="414" y="1080" width="120" height="80" as="geometry" />
        </mxCell>
      </root>
    </mxGraphModel>
  </diagram>
</mxfile>
